<?xml version="1.0" standalone="no"?>
<!DOCTYPE svg PUBLIC "-//W3C//DTD SVG 20010904//EN"
 "http://www.w3.org/TR/2001/REC-SVG-20010904/DTD/svg10.dtd">
<svg version="1.0" xmlns="http://www.w3.org/2000/svg"
 width="794.000000pt" height="793.000000pt" viewBox="0 0 794.000000 793.000000"
 preserveAspectRatio="xMidYMid meet">

<g transform="translate(0.000000,793.000000) scale(0.100000,-0.100000)"
fill="#000000" stroke="none">
<path d="M3475 7084 c-148 -40 -222 -80 -309 -169 -97 -99 -144 -235 -133
-384 3 -43 12 -97 19 -120 22 -71 78 -142 138 -177 55 -32 129 -60 85 -32 -37
24 -91 84 -109 122 -42 88 -6 284 70 388 150 204 379 236 568 80 182 -151 209
-401 92 -862 -40 -156 -60 -233 -74 -275 -6 -16 -18 -57 -27 -90 -9 -33 -29
-100 -45 -150 -15 -49 -30 -99 -33 -110 -2 -11 -27 -96 -55 -190 -112 -378
-134 -493 -133 -690 0 -77 2 -149 3 -159 3 -16 -8 -21 -72 -33 -385 -71 -651
-179 -800 -323 -92 -89 -114 -134 -115 -230 0 -59 5 -84 23 -120 106 -204 474
-376 954 -444 274 -39 660 -46 918 -16 435 50 812 186 980 353 71 71 103 134
108 215 4 55 0 71 -27 127 -124 250 -607 434 -1251 475 -96 6 -180 13 -187 15
-6 2 -12 12 -11 22 0 10 -3 63 -7 118 -23 303 90 622 263 748 65 47 84 56 143
67 156 30 335 -73 417 -239 33 -67 37 -83 37 -151 0 -68 -4 -82 -30 -125 -16
-26 -52 -64 -80 -83 -52 -36 -33 -36 37 -1 101 51 158 152 166 294 5 107 -10
174 -62 262 -40 68 -80 108 -156 155 -97 61 -141 73 -275 73 -119 0 -121 0
-200 -39 -114 -55 -203 -148 -271 -281 -123 -239 -151 -499 -85 -780 6 -22 9
-41 7 -42 -3 -4 -106 -12 -196 -15 l-75 -3 -3 105 c-5 158 17 312 78 560 16
64 85 284 132 420 54 157 151 452 173 525 9 33 21 71 26 85 5 14 16 57 25 95
67 308 70 496 9 646 -49 122 -170 262 -273 317 -101 54 -177 73 -277 71 -49
-1 -94 -3 -100 -5z m515 -2886 c46 -125 146 -325 157 -314 3 2 -4 33 -16 68
-22 66 -61 236 -61 264 0 14 13 15 113 10 355 -21 637 -86 867 -199 84 -41
118 -65 175 -121 84 -83 107 -128 108 -205 1 -203 -277 -384 -735 -477 -168
-34 -266 -44 -494 -51 -449 -13 -842 56 -1129 200 -297 148 -366 352 -180 532
28 27 77 65 108 83 128 77 344 153 528 187 46 9 91 18 101 21 12 4 20 -8 33
-48 39 -119 99 -213 189 -295 59 -54 177 -123 236 -138 22 -6 21 -3 -10 22
-108 87 -168 158 -222 268 -33 66 -72 195 -61 206 8 8 72 13 214 17 l67 2 12
-32z"/>
<path d="M5050 6743 c-260 -43 -443 -298 -531 -737 -10 -54 -17 -101 -15 -104
3 -2 8 9 11 24 13 56 96 250 141 329 130 226 272 340 440 352 274 21 424 -232
273 -461 -44 -65 -123 -116 -196 -127 -52 -7 -49 -7 32 -5 120 3 191 34 273
120 140 146 132 326 -22 474 -107 103 -271 158 -406 135z"/>
<path d="M5805 3473 c-102 -14 -289 -91 -412 -169 -68 -43 -178 -99 -248 -125
-36 -13 -55 -26 -56 -37 0 -9 -2 -24 -3 -32 -2 -8 -6 -46 -10 -85 -4 -38 -18
-119 -33 -179 -61 -259 -156 -445 -304 -595 -61 -62 -162 -141 -179 -141 -3 0
19 26 50 58 139 144 231 355 281 642 10 63 22 157 26 207 l6 93 -44 -14 c-102
-31 -322 -69 -509 -86 -149 -14 -512 -14 -665 0 -437 39 -820 148 -1034 294
-30 20 -55 35 -58 33 -5 -6 34 -264 58 -381 26 -126 87 -313 132 -402 167
-329 457 -523 928 -620 111 -23 161 -27 294 -28 159 -1 208 5 389 45 409 92
672 274 840 580 39 71 106 251 126 339 42 185 208 358 370 385 118 20 193 1
257 -67 66 -69 80 -163 42 -278 -56 -163 -361 -379 -807 -570 -29 -13 -51 -25
-48 -27 7 -8 258 47 356 78 391 124 621 310 705 567 13 41 16 78 13 152 -3 88
-7 104 -41 173 -76 153 -219 217 -422 190z"/>
<path d="M2650 2479 c-208 -57 -448 -152 -579 -231 -120 -72 -240 -194 -270
-274 -115 -305 285 -595 1044 -758 386 -83 870 -124 1325 -113 222 5 509 24
519 33 2 2 -4 30 -13 62 -9 32 -19 86 -22 121 l-7 63 -61 -6 c-420 -43 -901
-34 -1299 25 -568 83 -983 257 -1107 465 -31 52 -35 66 -35 129 0 56 5 78 24
110 74 123 221 228 436 311 55 21 101 39 103 40 5 3 -10 34 -17 33 -3 0 -22
-5 -41 -10z"/>
<path d="M5748 2331 c-21 -10 -40 -20 -43 -23 -3 -3 24 -27 60 -54 107 -78
160 -164 160 -259 l0 -62 72 -6 c107 -8 183 -46 243 -123 l30 -36 11 28 c18
47 4 156 -26 213 -34 62 -122 151 -205 206 -68 45 -241 136 -256 134 -5 0 -26
-8 -46 -18z"/>
<path d="M3015 2080 c-12 -20 -7 -90 9 -114 49 -76 156 -141 311 -190 444
-141 1157 -120 1520 44 77 35 161 96 184 133 21 34 30 120 13 131 -4 2 -44
-18 -87 -46 -90 -57 -281 -148 -365 -172 -213 -62 -466 -95 -647 -85 -124 7
-381 54 -501 91 -85 26 -259 108 -342 162 -36 23 -70 45 -77 49 -6 4 -14 3
-18 -3z"/>
<path d="M5825 1771 c-113 -38 -187 -109 -246 -236 -70 -149 -76 -275 -16
-357 17 -24 40 -50 51 -58 44 -33 49 -30 73 38 59 169 168 349 260 431 31 28
58 49 60 48 1 -2 -31 -55 -73 -118 -110 -167 -178 -319 -190 -424 l-7 -55 49
0 c105 0 211 46 277 119 100 110 144 301 108 468 -17 77 -64 137 -119 153 -55
15 -170 11 -227 -9z"/>
<path d="M5023 1569 c-69 -9 -146 -39 -182 -72 -56 -52 -66 -144 -28 -274 42
-144 131 -259 243 -314 83 -41 193 -51 273 -24 28 9 51 19 51 21 0 17 -36 84
-75 138 -53 74 -195 213 -295 288 -39 28 -68 53 -66 56 7 7 105 -41 169 -82
78 -50 193 -160 263 -252 31 -41 60 -74 64 -74 13 0 39 36 61 85 38 86 11 200
-72 307 -121 154 -249 216 -406 197z"/>
</g>
</svg>
